STARTFONT 2.1
FONT dancer
SIZE 44 75 75
FONTBOUNDINGBOX 47 46 0 -10

STARTPROPERTIES 10
COPYRIGHT "Public domain font.  Share and enjoy."
POINT_SIZE 440
WEIGHT 10
RESOLUTION_X 75
RESOLUTION_Y 75
X_HEIGHT 36
QUAD_WIDTH 47
DEFAULT_CHAR 0
FONT_DESCENT 10
FONT_ASCENT 36
ENDPROPERTIES

CHARS 51

STARTCHAR C040
ENCODING 32
SWIDTH 1068 0
DWIDTH 47 0
BBX 47 46 0 -10
BITMAP
000000000000
000000000000
000000000000
000000000000
000000000000
000000000000
000000000000
000000000000
000000000000
000000000000
000000000000
000000000000
000000000000
000000000000
000000000000
000000000000
000000000000
000000000000
000000000000
000000000000
000000000000
000000000000
000000000000
000000000000
000000000000
000000000000
000000000000
000000000000
000000000000
000000000000
000000000000
000000000000
000000000000
000000000000
000000000000
000000000000
000000000000
000000000000
000000000000
000000000000
000000000000
000000000000
000000000000
000000000000
000000000000
000000000000
ENDCHAR

STARTCHAR +
ENCODING 43
SWIDTH 1068 0
DWIDTH 47 0
BBX 47 46 0 -10
BITMAP
000006000000
000006000000
000006000000
000006000000
000006000000
000006000000
000006000000
000006000000
000006000000
000006000000
000006000000
000006000000
000006000000
000006000000
000006000000
000006000000
000006000000
000006000000
000006000000
000006000000
FFFFFFFFFFFE
FFFFFFFFFFFE
000006000000
000006000000
000006000000
000006000000
000006000000
000006000000
000006000000
000006000000
000006000000
000006000000
000006000000
000006000000
000006000000
000006000000
000006000000
000006000000
000006000000
000006000000
000006000000
000006000000
000006000000
000006000000
000006000000
000000000000
ENDCHAR

STARTCHAR -
ENCODING 45
SWIDTH 1068 0
DWIDTH 47 0
BBX 47 46 0 -10
BITMAP
000000000000
000000000000
000000000000
000000000000
000000000000
000000000000
000000000000
000000000000
000000000000
000000000000
000000000000
000000000000
000000000000
000000000000
000000000000
000000000000
000000000000
000000000000
000000000000
000000000000
FFFFFFFFFFFE
FFFFFFFFFFFE
000000000000
000000000000
000000000000
000000000000
000000000000
000000000000
000000000000
000000000000
000000000000
000000000000
000000000000
000000000000
000000000000
000000000000
000000000000
000000000000
000000000000
000000000000
000000000000
000000000000
000000000000
000000000000
000000000000
000000000000
ENDCHAR

STARTCHAR .
ENCODING 46
SWIDTH 1068 0
DWIDTH 47 0
BBX 47 46 0 -10
BITMAP
000000000000
000000000000
000000000000
000000000000
000000000000
000000000000
000000000000
000000000000
000000000000
000000000000
000000000000
000000000000
000000000000
000000000000
000000000000
000000000000
000000000000
3E0000000000
7F0000000000
FF8000000000
FF8000000000
FF8000000000
FF8000000000
FF8000000000
7F0000000000
3E0000000000
000000000000
000000000000
000000000000
000000000000
000000000000
000000000000
000000000000
000000000000
000000000000
000000000000
000000000000
000000000000
000000000000
000000000000
000000000000
000000000000
000000000000
000000000000
000000000000
000000000000
ENDCHAR

STARTCHAR 0
ENCODING 48
SWIDTH 1068 0
DWIDTH 47 0
BBX 47 46 0 -10
BITMAP
000000000000
000000000000
000000000000
000000000000
000000000000
000000000000
000000000000
000000000000
000000000000
000000000000
000000000000
000000000000
000000000000
000000000000
1E0000000000
3F0000000000
738000000000
61C000000000
61C000000000
638000000000
678000000000
6D8000000000
798000000000
718000000000
E18000000000
E18000000000
738000000000
3F0000000000
1E0000000000
000000000000
000000000000
000000000000
000000000000
000000000000
000000000000
000000000000
000000000000
000000000000
000000000000
000000000000
000000000000
000000000000
000000000000
000000000000
000000000000
000000000000
ENDCHAR

STARTCHAR 1
ENCODING 49
SWIDTH 1068 0
DWIDTH 47 0
BBX 47 46 0 -10
BITMAP
000000000000
000000000000
000000000000
000000000000
000000000000
000000000000
000000000000
000000000000
000000000000
000000000000
000000000000
000000000000
000000000000
000000000000
180000000000
380000000000
780000000000
180000000000
180000000000
180000000000
180000000000
180000000000
180000000000
180000000000
180000000000
180000000000
180000000000
FF0000000000
FF0000000000
000000000000
000000000000
000000000000
000000000000
000000000000
000000000000
000000000000
000000000000
000000000000
000000000000
000000000000
000000000000
000000000000
000000000000
000000000000
000000000000
000000000000
ENDCHAR

STARTCHAR 2
ENCODING 50
SWIDTH 1068 0
DWIDTH 47 0
BBX 47 46 0 -10
BITMAP
000000000000
000000000000
000000000000
000000000000
000000000000
000000000000
000000000000
000000000000
000000000000
000000000000
000000000000
000000000000
000000000000
000000000000
3E0000000000
7F0000000000
C18000000000
C18000000000
018000000000
018000000000
030000000000
060000000000
0C0000000000
180000000000
300000000000
600000000000
C00000000000
FF8000000000
FF8000000000
000000000000
000000000000
000000000000
000000000000
000000000000
000000000000
000000000000
000000000000
000000000000
000000000000
000000000000
000000000000
000000000000
000000000000
000000000000
000000000000
000000000000
ENDCHAR

STARTCHAR 3
ENCODING 51
SWIDTH 1068 0
DWIDTH 47 0
BBX 47 46 0 -10
BITMAP
000000000000
000000000000
000000000000
000000000000
000000000000
000000000000
000000000000
000000000000
000000000000
000000000000
000000000000
000000000000
000000000000
000000000000
3E0000000000
7F0000000000
C38000000000
C18000000000
018000000000
030000000000
1E0000000000
1F0000000000
018000000000
018000000000
018000000000
C18000000000
C38000000000
7F0000000000
3E0000000000
000000000000
000000000000
000000000000
000000000000
000000000000
000000000000
000000000000
000000000000
000000000000
000000000000
000000000000
000000000000
000000000000
000000000000
000000000000
000000000000
000000000000
ENDCHAR

STARTCHAR 4
ENCODING 52
SWIDTH 1068 0
DWIDTH 47 0
BBX 47 46 0 -10
BITMAP
000000000000
000000000000
000000000000
000000000000
000000000000
000000000000
000000000000
000000000000
000000000000
000000000000
000000000000
000000000000
000000000000
000000000000
0C0000000000
0C0000000000
180000000000
180000000000
300000000000
360000000000
660000000000
660000000000
C60000000000
C60000000000
FF8000000000
FF8000000000
060000000000
060000000000
060000000000
000000000000
000000000000
000000000000
000000000000
000000000000
000000000000
000000000000
000000000000
000000000000
000000000000
000000000000
000000000000
000000000000
000000000000
000000000000
000000000000
000000000000
ENDCHAR

STARTCHAR 5
ENCODING 53
SWIDTH 1068 0
DWIDTH 47 0
BBX 47 46 0 -10
BITMAP
000000000000
000000000000
000000000000
000000000000
000000000000
000000000000
000000000000
000000000000
000000000000
000000000000
000000000000
000000000000
000000000000
000000000000
FF0000000000
FF0000000000
C00000000000
C00000000000
C00000000000
C00000000000
FE0000000000
FF0000000000
038000000000
018000000000
018000000000
C18000000000
C38000000000
7F0000000000
3E0000000000
000000000000
000000000000
000000000000
000000000000
000000000000
000000000000
000000000000
000000000000
000000000000
000000000000
000000000000
000000000000
000000000000
000000000000
000000000000
000000000000
000000000000
ENDCHAR

STARTCHAR 6
ENCODING 54
SWIDTH 1068 0
DWIDTH 47 0
BBX 47 46 0 -10
BITMAP
000000000000
000000000000
000000000000
000000000000
000000000000
000000000000
000000000000
000000000000
000000000000
000000000000
000000000000
000000000000
000000000000
000000000000
3E0000000000
7F0000000000
C18000000000
C18000000000
C00000000000
C00000000000
DE0000000000
FF0000000000
E38000000000
C18000000000
C18000000000
C18000000000
E38000000000
7F0000000000
3E0000000000
000000000000
000000000000
000000000000
000000000000
000000000000
000000000000
000000000000
000000000000
000000000000
000000000000
000000000000
000000000000
000000000000
000000000000
000000000000
000000000000
000000000000
ENDCHAR

STARTCHAR 7
ENCODING 55
SWIDTH 1068 0
DWIDTH 47 0
BBX 47 46 0 -10
BITMAP
000000000000
000000000000
000000000000
000000000000
000000000000
000000000000
000000000000
000000000000
000000000000
000000000000
000000000000
000000000000
000000000000
000000000000
FF8000000000
FF8000000000
018000000000
030000000000
030000000000
060000000000
060000000000
0C0000000000
0C0000000000
180000000000
180000000000
300000000000
300000000000
600000000000
600000000000
000000000000
000000000000
000000000000
000000000000
000000000000
000000000000
000000000000
000000000000
000000000000
000000000000
000000000000
000000000000
000000000000
000000000000
000000000000
000000000000
000000000000
ENDCHAR

STARTCHAR 8
ENCODING 56
SWIDTH 1068 0
DWIDTH 47 0
BBX 47 46 0 -10
BITMAP
000000000000
000000000000
000000000000
000000000000
000000000000
000000000000
000000000000
000000000000
000000000000
000000000000
000000000000
000000000000
000000000000
000000000000
1E0000000000
3F0000000000
618000000000
618000000000
618000000000
330000000000
1E0000000000
3F0000000000
738000000000
E1C000000000
C0C000000000
C0C000000000
E1C000000000
7F8000000000
3F0000000000
000000000000
000000000000
000000000000
000000000000
000000000000
000000000000
000000000000
000000000000
000000000000
000000000000
000000000000
000000000000
000000000000
000000000000
000000000000
000000000000
000000000000
ENDCHAR

STARTCHAR 9
ENCODING 57
SWIDTH 1068 0
DWIDTH 47 0
BBX 47 46 0 -10
BITMAP
000000000000
000000000000
000000000000
000000000000
000000000000
000000000000
000000000000
000000000000
000000000000
000000000000
000000000000
000000000000
000000000000
000000000000
3E0000000000
7F0000000000
E38000000000
C18000000000
C18000000000
C18000000000
E38000000000
7F8000000000
3D8000000000
018000000000
018000000000
C18000000000
C38000000000
7F0000000000
3E0000000000
000000000000
000000000000
000000000000
000000000000
000000000000
000000000000
000000000000
000000000000
000000000000
000000000000
000000000000
000000000000
000000000000
000000000000
000000000000
000000000000
000000000000
ENDCHAR

STARTCHAR A
ENCODING 65
SWIDTH 1068 0
DWIDTH 47 0
BBX 47 46 0 -10
BITMAP
000000000000
000000000000
000000000000
000000000000
000000000000
000000000000
000000000000
000000000000
000000000000
000000000000
000000000000
000000000000
000000000000
000000000000
3E0000000000
7F0000000000
E38000000000
C18000000000
C18000000000
C18000000000
C18000000000
C18000000000
FF8000000000
FF8000000000
C18000000000
C18000000000
C18000000000
C18000000000
C18000000000
000000000000
000000000000
000000000000
000000000000
000000000000
000000000000
000000000000
000000000000
000000000000
000000000000
000000000000
000000000000
000000000000
000000000000
000000000000
000000000000
000000000000
ENDCHAR

STARTCHAR B
ENCODING 66
SWIDTH 1068 0
DWIDTH 47 0
BBX 47 46 0 -10
BITMAP
000000000000
000000000000
000000000000
000000000000
000000000000
000000000000
000000000000
000000000000
000000000000
000000000000
000000000000
000000000000
000000000000
000000000000
FC0000000000
FE0000000000
C70000000000
C30000000000
C30000000000
C30000000000
C60000000000
FE0000000000
FF0000000000
C30000000000
C18000000000
C18000000000
C18000000000
C38000000000
FF0000000000
FC0000000000
000000000000
000000000000
000000000000
000000000000
000000000000
000000000000
000000000000
000000000000
000000000000
000000000000
000000000000
000000000000
000000000000
000000000000
000000000000
000000000000
ENDCHAR

STARTCHAR C
ENCODING 67
SWIDTH 1068 0
DWIDTH 47 0
BBX 47 46 0 -10
BITMAP
000000000000
000000000000
000000000000
000000000000
000000000000
000000000000
000000000000
000000000000
000000000000
000000000000
000000000000
000000000000
000000000000
000000000000
3E0000000000
7F0000000000
E38000000000
C18000000000
C00000000000
C00000000000
C00000000000
C00000000000
C00000000000
C00000000000
C00000000000
C18000000000
E38000000000
7F0000000000
3E0000000000
000000000000
000000000000
000000000000
000000000000
000000000000
000000000000
000000000000
000000000000
000000000000
000000000000
000000000000
000000000000
000000000000
000000000000
000000000000
000000000000
000000000000
ENDCHAR

STARTCHAR D
ENCODING 68
SWIDTH 1068 0
DWIDTH 47 0
BBX 47 46 0 -10
BITMAP
000000000000
000000000000
000000000000
000000000000
000000000000
000000000000
000000000000
000000000000
000000000000
000000000000
000000000000
000000000000
000000000000
000000000000
FE0000000000
FF0000000000
C38000000000
C18000000000
C18000000000
C18000000000
C18000000000
C18000000000
C18000000000
C18000000000
C18000000000
C18000000000
C38000000000
FF0000000000
FE0000000000
000000000000
000000000000
000000000000
000000000000
000000000000
000000000000
000000000000
000000000000
000000000000
000000000000
000000000000
000000000000
000000000000
000000000000
000000000000
000000000000
000000000000
ENDCHAR

STARTCHAR E
ENCODING 69
SWIDTH 1068 0
DWIDTH 47 0
BBX 47 46 0 -10
BITMAP
000000000000
000000000000
000000000000
000000000000
000000000000
000000000000
000000000000
000000000000
000000000000
000000000000
000000000000
000000000000
000000000000
000000000000
FF8000000000
FF8000000000
C00000000000
C00000000000
C00000000000
C00000000000
FE0000000000
FE0000000000
C00000000000
C00000000000
C00000000000
C00000000000
C00000000000
FF8000000000
FF8000000000
000000000000
000000000000
000000000000
000000000000
000000000000
000000000000
000000000000
000000000000
000000000000
000000000000
000000000000
000000000000
000000000000
000000000000
000000000000
000000000000
000000000000
ENDCHAR

STARTCHAR F
ENCODING 70
SWIDTH 1068 0
DWIDTH 47 0
BBX 47 46 0 -10
BITMAP
000000000000
000000000000
000000000000
000000000000
000000000000
000000000000
000000000000
000000000000
000000000000
000000000000
000000000000
000000000000
000000000000
000000000000
FF8000000000
FF8000000000
C00000000000
C00000000000
C00000000000
C00000000000
C00000000000
FE0000000000
FE0000000000
C00000000000
C00000000000
C00000000000
C00000000000
C00000000000
C00000000000
000000000000
000000000000
000000000000
000000000000
000000000000
000000000000
000000000000
000000000000
000000000000
000000000000
000000000000
000000000000
000000000000
000000000000
000000000000
000000000000
000000000000
ENDCHAR

STARTCHAR G
ENCODING 71
SWIDTH 1068 0
DWIDTH 47 0
BBX 47 46 0 -10
BITMAP
000000000000
000000000000
000000000000
000000000000
000000000000
000000000000
000000000000
000000000000
000000000000
000000000000
000000000000
000000000000
000000000000
000000000000
3E0000000000
7F0000000000
E38000000000
C18000000000
C00000000000
C00000000000
C00000000000
C00000000000
C78000000000
C78000000000
C18000000000
C18000000000
E38000000000
7F0000000000
3E0000000000
000000000000
000000000000
000000000000
000000000000
000000000000
000000000000
000000000000
000000000000
000000000000
000000000000
000000000000
000000000000
000000000000
000000000000
000000000000
000000000000
000000000000
ENDCHAR

STARTCHAR H
ENCODING 72
SWIDTH 1068 0
DWIDTH 47 0
BBX 47 46 0 -10
BITMAP
000000000000
000000000000
000000000000
000000000000
000000000000
000000000000
000000000000
000000000000
000000000000
000000000000
000000000000
000000000000
000000000000
000000000000
C18000000000
C18000000000
C18000000000
C18000000000
C18000000000
C18000000000
FF8000000000
FF8000000000
C18000000000
C18000000000
C18000000000
C18000000000
C18000000000
C18000000000
C18000000000
000000000000
000000000000
000000000000
000000000000
000000000000
000000000000
000000000000
000000000000
000000000000
000000000000
000000000000
000000000000
000000000000
000000000000
000000000000
000000000000
000000000000
ENDCHAR

STARTCHAR I
ENCODING 73
SWIDTH 1068 0
DWIDTH 47 0
BBX 47 46 0 -10
BITMAP
000000000000
000000000000
000000000000
000000000000
000000000000
000000000000
000000000000
000000000000
000000000000
000000000000
000000000000
000000000000
000000000000
000000000000
FC0000000000
FC0000000000
300000000000
300000000000
300000000000
300000000000
300000000000
300000000000
300000000000
300000000000
300000000000
300000000000
300000000000
FC0000000000
FC0000000000
000000000000
000000000000
000000000000
000000000000
000000000000
000000000000
000000000000
000000000000
000000000000
000000000000
000000000000
000000000000
000000000000
000000000000
000000000000
000000000000
000000000000
ENDCHAR

STARTCHAR J
ENCODING 74
SWIDTH 1068 0
DWIDTH 47 0
BBX 47 46 0 -10
BITMAP
000000000000
000000000000
000000000000
000000000000
000000000000
000000000000
000000000000
000000000000
000000000000
000000000000
000000000000
000000000000
000000000000
000000000000
018000000000
018000000000
018000000000
018000000000
018000000000
018000000000
018000000000
018000000000
018000000000
018000000000
018000000000
C18000000000
C38000000000
7F0000000000
3E0000000000
000000000000
000000000000
000000000000
000000000000
000000000000
000000000000
000000000000
000000000000
000000000000
000000000000
000000000000
000000000000
000000000000
000000000000
000000000000
000000000000
000000000000
ENDCHAR

STARTCHAR K
ENCODING 75
SWIDTH 1068 0
DWIDTH 47 0
BBX 47 46 0 -10
BITMAP
000000000000
000000000000
000000000000
000000000000
000000000000
000000000000
000000000000
000000000000
000000000000
000000000000
000000000000
000000000000
000000000000
000000000000
C18000000000
C30000000000
C60000000000
CC0000000000
D80000000000
F00000000000
E00000000000
E00000000000
F00000000000
D80000000000
CC0000000000
C60000000000
C30000000000
C18000000000
C08000000000
000000000000
000000000000
000000000000
000000000000
000000000000
000000000000
000000000000
000000000000
000000000000
000000000000
000000000000
000000000000
000000000000
000000000000
000000000000
000000000000
000000000000
ENDCHAR

STARTCHAR L
ENCODING 76
SWIDTH 1068 0
DWIDTH 47 0
BBX 47 46 0 -10
BITMAP
000000000000
000000000000
000000000000
000000000000
000000000000
000000000000
000000000000
000000000000
000000000000
000000000000
000000000000
000000000000
000000000000
000000000000
C00000000000
C00000000000
C00000000000
C00000000000
C00000000000
C00000000000
C00000000000
C00000000000
C00000000000
C00000000000
C00000000000
C00000000000
C00000000000
FF8000000000
FF8000000000
000000000000
000000000000
000000000000
000000000000
000000000000
000000000000
000000000000
000000000000
000000000000
000000000000
000000000000
000000000000
000000000000
000000000000
000000000000
000000000000
000000000000
ENDCHAR

STARTCHAR M
ENCODING 77
SWIDTH 1068 0
DWIDTH 47 0
BBX 47 46 0 -10
BITMAP
000000000000
000000000000
000000000000
000000000000
000000000000
000000000000
000000000000
000000000000
000000000000
000000000000
000000000000
000000000000
000000000000
000000000000
C18000000000
E38000000000
F78000000000
D58000000000
DD8000000000
DD8000000000
C98000000000
C18000000000
C18000000000
C18000000000
C18000000000
C18000000000
C18000000000
C18000000000
C18000000000
000000000000
000000000000
000000000000
000000000000
000000000000
000000000000
000000000000
000000000000
000000000000
000000000000
000000000000
000000000000
000000000000
000000000000
000000000000
000000000000
000000000000
ENDCHAR

STARTCHAR N
ENCODING 78
SWIDTH 1068 0
DWIDTH 47 0
BBX 47 46 0 -10
BITMAP
000000000000
000000000000
000000000000
000000000000
000000000000
000000000000
000000000000
000000000000
000000000000
000000000000
000000000000
000000000000
000000000000
000000000000
C18000000000
E18000000000
E18000000000
F18000000000
F18000000000
D98000000000
D98000000000
DD8000000000
CD8000000000
CD8000000000
C78000000000
C78000000000
C38000000000
C38000000000
C18000000000
000000000000
000000000000
000000000000
000000000000
000000000000
000000000000
000000000000
000000000000
000000000000
000000000000
000000000000
000000000000
000000000000
000000000000
000000000000
000000000000
000000000000
ENDCHAR

STARTCHAR O
ENCODING 79
SWIDTH 1068 0
DWIDTH 47 0
BBX 47 46 0 -10
BITMAP
000000000000
000000000000
000000000000
000000000000
000000000000
000000000000
000000000000
000000000000
000000000000
000000000000
000000000000
000000000000
000000000000
000000000000
3E0000000000
7F0000000000
E38000000000
C18000000000
C18000000000
C18000000000
C18000000000
C18000000000
C18000000000
C18000000000
C18000000000
C18000000000
E38000000000
7F0000000000
3E0000000000
000000000000
000000000000
000000000000
000000000000
000000000000
000000000000
000000000000
000000000000
000000000000
000000000000
000000000000
000000000000
000000000000
000000000000
000000000000
000000000000
000000000000
ENDCHAR

STARTCHAR P
ENCODING 80
SWIDTH 1068 0
DWIDTH 47 0
BBX 47 46 0 -10
BITMAP
000000000000
000000000000
000000000000
000000000000
000000000000
000000000000
000000000000
000000000000
000000000000
000000000000
000000000000
000000000000
000000000000
000000000000
FE0000000000
FF0000000000
C38000000000
C18000000000
C18000000000
C18000000000
C38000000000
FF0000000000
FE0000000000
C00000000000
C00000000000
C00000000000
C00000000000
C00000000000
C00000000000
000000000000
000000000000
000000000000
000000000000
000000000000
000000000000
000000000000
000000000000
000000000000
000000000000
000000000000
000000000000
000000000000
000000000000
000000000000
000000000000
000000000000
ENDCHAR

STARTCHAR Q
ENCODING 81
SWIDTH 1068 0
DWIDTH 47 0
BBX 47 46 0 -10
BITMAP
000000000000
000000000000
000000000000
000000000000
000000000000
000000000000
000000000000
000000000000
000000000000
000000000000
000000000000
000000000000
000000000000
000000000000
3E0000000000
7F0000000000
E38000000000
C18000000000
C18000000000
C18000000000
C18000000000
C18000000000
C18000000000
C18000000000
C18000000000
C78000000000
E78000000000
7F0000000000
3FC000000000
00C000000000
000000000000
000000000000
000000000000
000000000000
000000000000
000000000000
000000000000
000000000000
000000000000
000000000000
000000000000
000000000000
000000000000
000000000000
000000000000
000000000000
ENDCHAR

STARTCHAR R
ENCODING 82
SWIDTH 1068 0
DWIDTH 47 0
BBX 47 46 0 -10
BITMAP
000000000000
000000000000
000000000000
000000000000
000000000000
000000000000
000000000000
000000000000
000000000000
000000000000
000000000000
000000000000
000000000000
000000000000
FE0000000000
FF0000000000
C38000000000
C18000000000
C18000000000
C38000000000
FF0000000000
FE0000000000
CC0000000000
C60000000000
C60000000000
C30000000000
C30000000000
C18000000000
C18000000000
000000000000
000000000000
000000000000
000000000000
000000000000
000000000000
000000000000
000000000000
000000000000
000000000000
000000000000
000000000000
000000000000
000000000000
000000000000
000000000000
000000000000
ENDCHAR

STARTCHAR S
ENCODING 83
SWIDTH 1068 0
DWIDTH 47 0
BBX 47 46 0 -10
BITMAP
000000000000
000000000000
000000000000
000000000000
000000000000
000000000000
000000000000
000000000000
000000000000
000000000000
000000000000
000000000000
000000000000
000000000000
3E0000000000
7F0000000000
C38000000000
C18000000000
C00000000000
C00000000000
7E0000000000
3F0000000000
038000000000
018000000000
018000000000
C18000000000
C38000000000
FF0000000000
7E0000000000
000000000000
000000000000
000000000000
000000000000
000000000000
000000000000
000000000000
000000000000
000000000000
000000000000
000000000000
000000000000
000000000000
000000000000
000000000000
000000000000
000000000000
ENDCHAR

STARTCHAR T
ENCODING 84
SWIDTH 1068 0
DWIDTH 47 0
BBX 47 46 0 -10
BITMAP
000000000000
000000000000
000000000000
000000000000
000000000000
000000000000
000000000000
000000000000
000000000000
000000000000
000000000000
000000000000
000000000000
000000000000
FFC000000000
FFC000000000
0C0000000000
0C0000000000
0C0000000000
0C0000000000
0C0000000000
0C0000000000
0C0000000000
0C0000000000
0C0000000000
0C0000000000
0C0000000000
0C0000000000
0C0000000000
000000000000
000000000000
000000000000
000000000000
000000000000
000000000000
000000000000
000000000000
000000000000
000000000000
000000000000
000000000000
000000000000
000000000000
000000000000
000000000000
000000000000
ENDCHAR

STARTCHAR U
ENCODING 85
SWIDTH 1068 0
DWIDTH 47 0
BBX 47 46 0 -10
BITMAP
000000000000
000000000000
000000000000
000000000000
000000000000
000000000000
000000000000
000000000000
000000000000
000000000000
000000000000
000000000000
000000000000
000000000000
C18000000000
C18000000000
C18000000000
C18000000000
C18000000000
C18000000000
C18000000000
C18000000000
C18000000000
C18000000000
C18000000000
C18000000000
E38000000000
7F0000000000
3E0000000000
000000000000
000000000000
000000000000
000000000000
000000000000
000000000000
000000000000
000000000000
000000000000
000000000000
000000000000
000000000000
000000000000
000000000000
000000000000
000000000000
000000000000
ENDCHAR

STARTCHAR V
ENCODING 86
SWIDTH 1068 0
DWIDTH 47 0
BBX 47 46 0 -10
BITMAP
000000000000
000000000000
000000000000
000000000000
000000000000
000000000000
000000000000
000000000000
000000000000
000000000000
000000000000
000000000000
000000000000
000000000000
C0C000000000
C0C000000000
C0C000000000
C0C000000000
618000000000
618000000000
618000000000
330000000000
330000000000
330000000000
120000000000
1E0000000000
1E0000000000
0C0000000000
0C0000000000
000000000000
000000000000
000000000000
000000000000
000000000000
000000000000
000000000000
000000000000
000000000000
000000000000
000000000000
000000000000
000000000000
000000000000
000000000000
000000000000
000000000000
ENDCHAR

STARTCHAR W
ENCODING 87
SWIDTH 1068 0
DWIDTH 47 0
BBX 47 46 0 -10
BITMAP
000000000000
000000000000
000000000000
000000000000
000000000000
000000000000
000000000000
000000000000
000000000000
000000000000
000000000000
000000000000
000000000000
000000000000
C18000000000
C18000000000
C18000000000
C18000000000
C18000000000
C18000000000
C18000000000
C18000000000
C98000000000
DD8000000000
D58000000000
D58000000000
F78000000000
E38000000000
C18000000000
000000000000
000000000000
000000000000
000000000000
000000000000
000000000000
000000000000
000000000000
000000000000
000000000000
000000000000
000000000000
000000000000
000000000000
000000000000
000000000000
000000000000
ENDCHAR

STARTCHAR X
ENCODING 88
SWIDTH 1068 0
DWIDTH 47 0
BBX 47 46 0 -10
BITMAP
000000000000
000000000000
000000000000
000000000000
000000000000
000000000000
000000000000
000000000000
000000000000
000000000000
000000000000
000000000000
000000000000
000000000000
C18000000000
C18000000000
630000000000
630000000000
360000000000
360000000000
1C0000000000
1C0000000000
1C0000000000
360000000000
360000000000
630000000000
630000000000
C18000000000
C18000000000
000000000000
000000000000
000000000000
000000000000
000000000000
000000000000
000000000000
000000000000
000000000000
000000000000
000000000000
000000000000
000000000000
000000000000
000000000000
000000000000
000000000000
ENDCHAR

STARTCHAR Y
ENCODING 89
SWIDTH 1068 0
DWIDTH 47 0
BBX 47 46 0 -10
BITMAP
000000000000
000000000000
000000000000
000000000000
000000000000
000000000000
000000000000
000000000000
000000000000
000000000000
000000000000
000000000000
000000000000
000000000000
C0C000000000
C0C000000000
618000000000
618000000000
330000000000
330000000000
1E0000000000
1E0000000000
0C0000000000
0C0000000000
0C0000000000
0C0000000000
0C0000000000
0C0000000000
0C0000000000
000000000000
000000000000
000000000000
000000000000
000000000000
000000000000
000000000000
000000000000
000000000000
000000000000
000000000000
000000000000
000000000000
000000000000
000000000000
000000000000
000000000000
ENDCHAR

STARTCHAR Z
ENCODING 90
SWIDTH 1068 0
DWIDTH 47 0
BBX 47 46 0 -10
BITMAP
000000000000
000000000000
000000000000
000000000000
000000000000
000000000000
000000000000
000000000000
000000000000
000000000000
000000000000
000000000000
000000000000
000000000000
FFC000000000
FFC000000000
004000000000
00C000000000
018000000000
030000000000
060000000000
0C0000000000
180000000000
300000000000
600000000000
C00000000000
800000000000
FFC000000000
FFC000000000
000000000000
000000000000
000000000000
000000000000
000000000000
000000000000
000000000000
000000000000
000000000000
000000000000
000000000000
000000000000
000000000000
000000000000
000000000000
000000000000
000000000000
ENDCHAR

STARTCHAR a
ENCODING 97
SWIDTH 1068 0
DWIDTH 47 0
BBX 47 46 0 -10
BITMAP
000000000000
000000000000
000000000000
000000000000
000000000000
000000000000
FFFFFFFC0000
FFFFFFFC0000
C000000C0000
C000000C0000
C000000C0000
C000000C0000
C000000C0000
C000000C0000
C000000C0000
C000000C0000
C000000C0000
C000000C0000
C000000C0000
C000000C0000
C000000C0000
C000000C0000
C000000C0000
C000000C0000
C000000C0000
C000000C0000
C000000C0000
C000000C0000
C000000C0000
C000000C0000
C000000C0000
C000000C0000
C000000C0000
C000000C0000
FFFFFFFC0000
FFFFFFFC0000
000FE0000000
001FF0000000
001FF0000000
001FF0000000
000FE0000000
000380000000
000000000000
000000000000
000000000000
000000000000
ENDCHAR

STARTCHAR b
ENCODING 98
SWIDTH 1068 0
DWIDTH 47 0
BBX 47 46 0 -10
BITMAP
000000000000
000000000000
000000000000
000000000000
000000000000
000000000000
03FFFFFFF000
03FFFFFFF000
030000003000
030000003000
030000003000
030000003000
030000003000
030000003000
030000003000
3B0000003000
7F0000003000
7F0000003000
FF0000003000
FF0000003000
FF0000003000
7F0000003000
7F0000003000
3B0000003000
030000003000
030000003000
030000003000
030000003000
030000003000
030000003000
030000003000
030000003000
030000003000
030000003000
03FFFFFFF000
03FFFFFFF000
000000000000
000000000000
000000000000
000000000000
000000000000
000000000000
000000000000
000000000000
000000000000
000000000000
ENDCHAR

STARTCHAR c
ENCODING 99
SWIDTH 1068 0
DWIDTH 47 0
BBX 47 46 0 -10
BITMAP
000000000000
000000000000
000000000000
000000000000
000000000000
000000000000
FFFFFFFC0000
FFFFFFFC0000
C000000C0000
C000000C0000
C000000C0000
C000000C0000
C000000C0000
C000000C0000
C000000C0000
C000000DC000
C000000FE000
C000000FE000
C000000FF000
C000000FF000
C000000FF000
C000000FE000
C000000FE000
C000000DC000
C000000C0000
C000000C0000
C000000C0000
C000000C0000
C000000C0000
C000000C0000
C000000C0000
C000000C0000
C000000C0000
C000000C0000
FFFFFFFC0000
FFFFFFFC0000
000000000000
000000000000
000000000000
000000000000
000000000000
000000000000
000000000000
000000000000
000000000000
000000000000
ENDCHAR

STARTCHAR d
ENCODING 100
SWIDTH 1068 0
DWIDTH 47 0
BBX 47 46 0 -10
BITMAP
000380000000
000FE0000000
001FF0000000
001FF0000000
001FF0000000
000FE0000000
FFFFFFFC0000
FFFFFFFC0000
C000000C0000
C000000C0000
C000000C0000
C000000C0000
C000000C0000
C000000C0000
C000000C0000
C000000C0000
C000000C0000
C000000C0000
C000000C0000
C000000C0000
C000000C0000
C000000C0000
C000000C0000
C000000C0000
C000000C0000
C000000C0000
C000000C0000
C000000C0000
C000000C0000
C000000C0000
C000000C0000
C000000C0000
C000000C0000
C000000C0000
FFFFFFFC0000
FFFFFFFC0000
000000000000
000000000000
000000000000
000000000000
000000000000
000000000000
000000000000
000000000000
000000000000
000000000000
ENDCHAR

STARTCHAR e
ENCODING 101
SWIDTH 1068 0
DWIDTH 47 0
BBX 47 46 0 -10
BITMAP
000000000000
000000000000
000000000000
000000000000
000000000000
000000000000
FFFFFFFC0000
FFFFFFFC0000
C000000C0000
C000000C0000
C000000C0000
C000000C0000
C000000C0000
C000000C0000
C000000C0000
C000000C0000
C000000C0000
C000000C0000
C000000C0000
C000000C0000
C000000C0000
C000000C0000
C000000C0000
C000000C0000
C000000C0000
C000000C0000
C000000C0000
C000000C0000
C000000C0000
C000000C0000
C000000C0000
C000000C0000
C000000C0000
C000000C0000
FFFFFFFC0000
FFFFFFFC0000
000000000000
000000000000
000000000000
000000000000
000000000000
000000000000
000000000000
000000000000
000000000000
000000000000
ENDCHAR

STARTCHAR p
ENCODING 112
SWIDTH 1068 0
DWIDTH 47 0
BBX 47 46 0 -10
BITMAP
000000000000
000000000000
000000000000
000000000000
000000000000
000000000000
F0F87C3C0000
800000040000
800000040000
800000040000
000000000000
000000000000
000000000000
000000000000
800000040000
800000040000
800000040000
800000040000
800000040000
000000000000
000000000000
000000000000
000000000000
800000040000
800000040000
800000040000
800000040000
800000040000
000000000000
000000000000
000000000000
000000000000
800000040000
800000040000
800000040000
F0F87C3C0000
000000000000
000000000000
000000000000
000000000000
000000000000
000000000000
000000000000
000000000000
000000000000
000000000000
ENDCHAR

STARTCHAR w
ENCODING 119
SWIDTH 1068 0
DWIDTH 47 0
BBX 47 46 0 -10
BITMAP
000000000000
000000000000
000000000000
000000000000
000000000000
000000000000
000000000000
000000000000
FFFFFFC00000
FFFFFFC00000
FFFFFFC00000
FFFFFFC00000
FFFFFFC00000
FFFFFFC00000
FFFFFFC00000
FFFFFFC00000
FFFFFFC00000
FFFFFFC00000
FFFFFFC00000
FFFFFFC00000
FFFFFFC00000
FFFFFFC00000
FFFFFFC00000
FFFFFFC00000
FFFFFFC00000
FFFFFFC00000
FFFFFFC00000
FFFFFFC00000
FFFFFFC00000
FFFFFFC00000
FFFFFFC00000
FFFFFFC00000
FFFFFFC00000
FFFFFFC00000
000000000000
000000000000
000000000000
000000000000
000000000000
000000000000
000000000000
000000000000
000000000000
000000000000
000000000000
000000000000
ENDCHAR

STARTCHAR x
ENCODING 120
SWIDTH 1068 0
DWIDTH 47 0
BBX 47 46 0 -10
BITMAP
000000000000
000000000000
000000000000
000000000000
000000000000
000000000000
000000000000
000000000000
008008000000
010010000000
020020000000
040040000000
080080000000
100100000000
200200000000
400400400000
800800800000
001001000000
002002000000
004004000000
008008000000
010010000000
020020000000
040040000000
080080000000
100100000000
200200000000
400400400000
800800800000
001001000000
002002000000
004004000000
008008000000
010010000000
000000000000
000000000000
000000000000
000000000000
000000000000
000000000000
000000000000
000000000000
000000000000
000000000000
000000000000
000000000000
ENDCHAR

STARTCHAR y
ENCODING 121
SWIDTH 1068 0
DWIDTH 47 0
BBX 47 46 0 -10
BITMAP
000000000000
000000000000
000000000000
000000000000
000000000000
000000000000
000000000000
000000000000
000000000000
000000000000
000000000000
000000000000
FFFFC0000000
800040000000
800040000000
800040000000
800040000000
87F840000000
840840000000
840840000000
840840000000
840840000000
840840000000
840840000000
87F840000000
800040000000
800040000000
800040000000
800040000000
FFFFC0000000
000000000000
000000000000
000000000000
000000000000
000000000000
000000000000
000000000000
000000000000
000000000000
000000000000
000000000000
000000000000
000000000000
000000000000
000000000000
000000000000
ENDCHAR

STARTCHAR z
ENCODING 122
SWIDTH 1068 0
DWIDTH 47 0
BBX 47 46 0 -10
BITMAP
000000000000
000000000000
000000000000
000000000000
000000000000
000000000000
000000000000
000000000000
000000000000
AAAAAA800000
000000000000
AAAAAA800000
000000000000
AAAAAA800000
000000000000
AAAAAA800000
000000000000
AAAAAA800000
000000000000
AAAAAA800000
000000000000
AAAAAA800000
000000000000
AAAAAA800000
000000000000
AAAAAA800000
000000000000
AAAAAA800000
000000000000
AAAAAA800000
000000000000
AAAAAA800000
000000000000
AAAAAA800000
000000000000
000000000000
000000000000
000000000000
000000000000
000000000000
000000000000
000000000000
000000000000
000000000000
000000000000
000000000000
ENDCHAR

STARTCHAR |
ENCODING 124
SWIDTH 1068 0
DWIDTH 47 0
BBX 47 46 0 -10
BITMAP
C00000000000
C00000000000
C00000000000
C00000000000
C00000000000
C00000000000
C00000000000
C00000000000
C00000000000
C00000000000
C00000000000
C00000000000
C00000000000
C00000000000
C00000000000
C00000000000
C00000000000
C00000000000
C00000000000
C00000000000
C00000000000
C00000000000
C00000000000
C00000000000
C00000000000
C00000000000
C00000000000
C00000000000
C00000000000
C00000000000
C00000000000
C00000000000
C00000000000
C00000000000
C00000000000
C00000000000
C00000000000
C00000000000
C00000000000
C00000000000
C00000000000
C00000000000
C00000000000
C00000000000
C00000000000
C00000000000
ENDCHAR
ENDFONT
